# xmcd
#
# Track frame offsets: 
#        150
#        21164
#        39202
#        57836
#        73666
#        93833
#        102847
#        112666
#        132941
#        153541
#        211624
#        218624
#        238501
#        248111
#        255448
#        265718
#
# Disc length: 3761 seconds
#
# Revision: 0
# Processed by: cddbd v1.5.2PL0 Copyright (c) Steve Scherf et al.
# Submitted via: ExactAudioCopy v0.95b3
#
DISCID=c50eaf10
DTITLE=Jimi Hendrix  - Studio Sessions Vol.1 (Voodoo Chile Records  Bo
DTITLE=x-Set) - Disc 2
DYEAR=1900
DGENRE=
TTITLE0=My Friend
TTITLE1=Somewhere
TTITLE2=Somewhere
TTITLE3=Little Miss Strange Instrumental
TTITLE4=1983
TTITLE5=Gypsy Eyes
TTITLE6=Gypsy Eyes
TTITLE7=Gypsy Eyes
TTITLE8=House Burning Down
TTITLE9=Three Little Bears\\South Saturn Delta Instrumental Jam
TTITLE10=Voodoo Child (Slight Return)
TTITLE11=Voodoo Child (Slight Return)
TTITLE12=Voodoo Child (Slight Return)
TTITLE13=Voodoo Child (Slight Return)
TTITLE14=Voodoo Child (Slight Return)
TTITLE15=Voodoo Child (Slight Return)
EXTD=
EXTT0=
EXTT1=
EXTT2=
EXTT3=
EXTT4=
EXTT5=
EXTT6=
EXTT7=
EXTT8=
EXTT9=
EXTT10=
EXTT11=
EXTT12=
EXTT13=
EXTT14=
EXTT15=
PLAYORDER=
